<svg xmlns="http://www.w3.org/2000/svg" viewBox="0 0 254.09 267.33"><defs><style>.cls-1{fill:#fec65f;}.cls-2{fill:#231f20;}.cls-3{fill:#fff;}.cls-4{fill:none;stroke:#231f20;stroke-linecap:round;stroke-miterlimit:10;stroke-width:5px;}</style></defs><title>cooky</title><g id="Layer_2" data-name="Layer 2"><g id="Layer_1-2" data-name="Layer 1"><path class="cls-1" d="M53.52,41.3C41,61.5,32.06,83.35,25.33,106.1c-2.77,9.36-5.45,18.75-8.77,27.93-.83,2.3-1.69,4.58-2.6,6.85-.28.7-.56,1.41-.85,2.11q-1.08,2.63,1-2.39c-.78.72-1.2,2.73-1.62,3.68-2.82,6.21-5.94,12.26-9.24,18.22a25.13,25.13,0,0,0,6.43,32.25c10.49,8.1,23,6,32.83-1.95A54.88,54.88,0,0,0,57,175.16a67.59,67.59,0,0,1,4-7.2c.53-.77,1.07-1.54,1.64-2.29q-3.45,4.47-.63,1c1.62-1.88,3.17-3.84,4.73-5.77,10.54-13,20.75-26.29,30.17-40.12,6.61-9.7,12.85-19.66,19.41-29.4q5.84-8.67,12-17.12c2.46-3.38,5-6.72,7.49-10,.68-.9,1.37-1.81,2.07-2.71q-3.19,4.11-.64.83c1.56-2,3.12-4,4.7-6L102.68,26.06C88.46,50.8,76.44,76.44,65.52,102.78c-4.67,11.26-9.16,22.59-13.77,33.86q-1.94,4.74-3.9,9.45c-.63,1.49-2.8,6.35,0,.06-.68,1.53-1.31,3.09-2,4.63q-4.64,10.8-9.54,21.49c-2.87,6.28-4.42,12.37-2.52,19.27,1.6,5.79,6.08,12.08,11.49,14.94,11.84,6.25,27.33,3.19,34.21-9a313.76,313.76,0,0,1,22-33.44c1-1.36,2.23-2.72,3.14-4.15-3.44,5.41-.47.63.39-.46q3.27-4.14,6.63-8.23,6.77-8.25,13.8-16.27c18.17-20.8,37.35-40.66,56.05-61L142.28,43.7c-17.87,28.07-37.66,54.84-56.08,82.54-19.28,29-36,59.14-48.74,91.61-2.13,5.44-.57,14.47,2.52,19.26a25.89,25.89,0,0,0,12,10.23c12.24,5.16,23.71-.06,31.22-10.23q3.9-5.28,7.86-10.51l3.42-4.49q2.52-3.29-.46.58l1.74-2.23q7.85-10.1,15.9-20,15.6-19.23,31.74-38c21.77-25.45,44-50.48,66.05-75.72l-39.27-30.3c-33,53.4-66.65,107.51-90.65,165.7-4,9.71,2.6,23.54,11.49,28.23a29.62,29.62,0,0,0,12.62,3.42c5.52.25,14.12-2.83,17.68-7.32,19.15-24.23,36.77-49.57,55-74.5q6.45-8.83,13-17.56c1.05-1.38,2.05-2.83,3.17-4.16-4.37,5.19,0,.05.88-1.1,2.31-2.93,4.63-5.85,7-8.74a398.33,398.33,0,0,1,29-32.19l-39.27-30.3c-16.26,21.59-32.53,43.17-48.17,65.21-15.33,21.61-29.9,43.56-38.08,69-3.24,10.09,2.06,23.25,11.49,28.23a25.92,25.92,0,0,0,30.3-3.91q45.1-42,87.95-86.34c7.43-7.69,10-20.92,3.91-30.29a29.86,29.86,0,0,0-9-9c-4.73-3-13.9-4.71-19.27-2.52-8.17,3.34-14.56,7.54-20.17,14.38-4.69,5.71-9.22,11.57-13.67,17.47q-10.56,14-19.88,28.9c-13.29,21.24-24.18,43.64-33.71,66.79-4,9.71,2.59,23.53,11.49,28.23,9.17,4.84,23.14,4.81,30.29-3.91a161.49,161.49,0,0,1,19.19-19.51c3.46-3,7.05-5.84,10.62-8.72,2.58-2.08-3.86,2.94-1.22.93.87-.65,1.72-1.31,2.59-2q2.91-2.21,5.85-4.39c16-11.93,32.35-23.63,46.3-38,9.13-9.38,10.05-26.14,0-35.36-9.86-9.05-25.61-10-35.35,0A216.18,216.18,0,0,1,191,171.53c-.85.67-1.75,1.3-2.55,2,1-.85,3.79-2.9,1.19-.93-1.94,1.48-3.88,2.95-5.84,4.42-3.69,2.76-7.4,5.5-11.08,8.26-15.91,11.93-31.87,24.08-44.54,39.53L170,249.15c1.8-4.36-1.4,3.19-.15.31l1.4-3.23q1.57-3.61,3.23-7.2,3.32-7.17,6.9-14.2,7.19-14.07,15.44-27.54,8-13.08,17-25.53,2.33-3.19,4.69-6.35c.48-.63,3.55-4.71,1.25-1.65-2.11,2.81.33-.39.75-.93,1.64-2.06,3.28-4.12,5-6.13.64-.78,1.36-1.51,2-2.31q2.26-2.14-.31-.08a9.2,9.2,0,0,1-4.68,2.22l-24.32-41.78q-42.83,44.33-87.95,86.33L152,225.41c.9-2.82,1.91-5.58,2.95-8.35,2.05-5.46-1.61,3.31-.11.28.66-1.32,1.23-2.68,1.87-4,2.58-5.32,5.47-10.49,8.53-15.55,6.46-10.67,13.7-20.87,20.93-31,15.29-21.49,31.16-42.56,47-63.62,3.49-4.64,4.24-13.92,2.52-19.26a26,26,0,0,0-9-13,25.06,25.06,0,0,0-32.83,2c-21.91,21.61-40.66,46.27-58.82,71-8.77,12-17.36,24-26,36.07q-6.48,9-13.07,17.88-3,4-6,8l-2,2.62L89.92,206a43.53,43.53,0,0,1-4,5.11L127.7,235.4c2.49-6.06-1.87,4.23-.08.17.71-1.6,1.4-3.21,2.12-4.81q2.25-5,4.61-10c3.15-6.64,6.44-13.21,9.81-19.74,7.25-14.06,14.88-27.92,22.7-41.67,14.93-26.24,30.57-52.07,46.45-77.74,6.57-10.63,3.12-24.87-6.44-32.25-9.26-7.15-24.61-7.47-32.83,2C128.21,103.91,81.46,155.73,40,211.87l45.69,19.27a62.07,62.07,0,0,1,2.67-6.66c-3,5.66-.37.89.27-.56q2.46-5.64,5.13-11.18c3.48-7.26,7.21-14.41,11.13-21.46,7.85-14.12,16.48-27.79,25.45-41.22,18.15-27.19,37.56-53.53,55.13-81.13,6.7-10.53,3-24.94-6.44-32.25s-24.34-7.25-32.82,2C107.33,80.83,64.76,121.93,36.31,172.27l43.18,25.24c11.86-25.93,22.29-52.44,33.15-78.8.75-1.82,5.16-11.65,1.61-3.9,1.2-2.62,2.27-5.3,3.43-7.94q3.75-8.55,7.78-17c6.28-13.14,13.14-26,20.4-38.61A25.09,25.09,0,0,0,139.42,19c-8.92-6.89-25.08-7.82-32.83,2C88,44.42,71.72,68.94,55,93.66q-5.49,8.11-11.29,16c-1.1,1.5-2.22,3-3.34,4.47-.58.78-1.17,1.56-1.77,2.33q-2.37,3.11,1.12-1.43c-3.15,2.86-5.65,7.18-8.35,10.5-5.93,7.32-12.47,14.35-16.8,22.79-1,1.92-2.65,4.1-3.33,6.1q4.5-5.62,2.05-2.69c-.52.6-1.06,1.17-1.62,1.73a59.31,59.31,0,0,1-4.55,4l39.27,30.3c11.6-20.89,19.68-43,26.39-65.88,2.74-9.33,5.58-18.64,9.18-27.68.35-.88,2-5,.39-1s.13-.24.52-1.11c1.18-2.62,2.43-5.21,3.73-7.78,3.07-6.07,6.47-12,10.06-17.74,6.91-11.12,2.74-28-9-34.2-12.26-6.48-26.83-2.91-34.21,9Z"/><path class="cls-2" d="M44.21,133.55,55.77,155.8a2.52,2.52,0,0,0,3.43.9q9.3-7.06,18.2-14.63a2.5,2.5,0,0,0,.4-3L62.7,119a2.55,2.55,0,0,0-3.42-.9A95.75,95.75,0,0,0,44,129.8c-2.35,2.21,1.19,5.74,3.53,3.54a88.92,88.92,0,0,1,14.3-11l-3.42-.9,15.09,20.09.39-3q-8.41,7.16-17.2,13.84l3.42.9L48.53,131c-1.48-2.85-5.8-.33-4.32,2.53Z"/><path class="cls-2" d="M134.12,140.38q-5.35,8.38-10.27,17a2.53,2.53,0,0,0,.89,3.42l16,9.19a2.54,2.54,0,0,0,3.42-.9l5.81-9.75c1.54-2.59,3.58-5.18,4.41-8.1a2.53,2.53,0,0,0-.64-2.43c-4.08-4.13-11-6.82-16-9.73-2.78-1.63-5.3,2.69-2.52,4.31l7.36,4.3c2.38,1.39,5.67,2.7,7.6,4.65l-.64-2.43c-.83,2.92-3.32,5.92-4.88,8.53l-4.84,8.13,3.42-.9-15.94-9.18.89,3.42q4.93-8.64,10.27-17c1.74-2.72-2.59-5.23-4.31-2.52Z"/><path class="cls-2" d="M116,99.11l2.81,10.73a2.51,2.51,0,0,0,3.08,1.75l9.11-3.71c1.67-.68,4-1.21,5-2.88s.33-3.94-.11-5.69A43.76,43.76,0,0,0,133,91.48a2.51,2.51,0,0,0-2.83-1.15,106.63,106.63,0,0,1-12.83,4.4c-3.1.84-1.78,5.66,1.33,4.82a105.44,105.44,0,0,0,12.83-4.39L128.65,94c1,2,3.78,7.27,1.6,8.81-1.22.87-3.16,1.29-4.55,1.86l-5.13,2.09,3.07,1.74-2.81-10.73C120,94.67,115.2,96,116,99.11Z"/><path class="cls-2" d="M53.06,125.73a39.78,39.78,0,0,0-3.48,14.51c-.11,2.37,3.65,3.57,4.66,1.26a59.68,59.68,0,0,1,8.4-13.9l-3.93-3a64.65,64.65,0,0,0-5.08,17.54A2.51,2.51,0,0,0,58.2,144l8.42-11.24-4.31-2.52a91,91,0,0,0-6.1,17.4c-.52,2.21,2.54,4.54,4.18,2.44a73.11,73.11,0,0,0,8.41-13.48c1.37-2.86-2.74-5.37-4.31-2.52a28.19,28.19,0,0,0-3.27,9.34c-.36,2.23,2.35,4.48,4.18,2.43a43,43,0,0,0,5.5-7.63L66.24,137a12.92,12.92,0,0,0,.48,3.44c.79,3.12,5.61,1.79,4.82-1.33l-.3-2.11a2.51,2.51,0,0,0-4.65-1.26,37.2,37.2,0,0,1-4.72,6.62L66,144.78a24.58,24.58,0,0,1,2.76-8.15l-4.31-2.52a68.21,68.21,0,0,1-7.63,12.46L61,149a84.63,84.63,0,0,1,5.58-16.21,2.5,2.5,0,0,0-4.31-2.52l-8.43,11.24,4.57,1.93A60,60,0,0,1,63,127.09c1-2.35-2-5.42-3.92-3A64,64,0,0,0,49.92,139l4.66,1.26a32.74,32.74,0,0,1,2.8-12c1.29-2.91-3-5.46-4.32-2.52Z"/><path class="cls-2" d="M117.44,100.62a11.89,11.89,0,0,0,3.77,5.92c1.45,1.22,4.55.6,4.27-1.76A48.41,48.41,0,0,0,124,97.32l-4.18,2.44a72.68,72.68,0,0,1,6.17,6.72c1.34,1.65,4.43.31,4.27-1.77a50.74,50.74,0,0,0-1-6.94l-4.17,2.43,3.33,3.83c1.51,1.73,4.17.24,4.27-1.77a30.77,30.77,0,0,0-.38-6.21l-2.41,3.17-1-.67c1.88,2.57,6.22.08,4.32-2.52a3.66,3.66,0,0,0-3.33-1.81,2.54,2.54,0,0,0-2.41,3.16,24.12,24.12,0,0,1,.2,4.88l4.26-1.77-3.33-3.83c-1.74-2-4.68.17-4.18,2.43a42.86,42.86,0,0,1,.86,5.62l4.26-1.77a74,74,0,0,0-6.17-6.72,2.52,2.52,0,0,0-4.18,2.43,38.79,38.79,0,0,1,1.27,6.13l4.27-1.77a7.14,7.14,0,0,1-2.49-3.72c-.89-3.09-5.71-1.77-4.82,1.33Z"/><path class="cls-2" d="M212.71,155.7,206.57,165a2.53,2.53,0,0,0,.9,3.42l8.6,4.2c1.6.78,3.55,2.14,5.43,1.84,4-.63,6.66-7.56,8-10.75.49-1.16.43-2.78-.9-3.42a108.81,108.81,0,0,1-11.83-6.64c-2.7-1.76-5.21,2.57-2.52,4.32a107.08,107.08,0,0,0,11.83,6.63l-.9-3.42c-.94,2.2-2.74,7.59-5.39,7.72-1.2.06-3.81-1.86-4.91-2.4l-4.92-2.4.9,3.42,6.14-9.25c1.78-2.69-2.55-5.19-4.32-2.52Z"/><path class="cls-2" d="M212.53,157.77a12.12,12.12,0,0,0-1.85,6.81c0,2,2.77,3.45,4.27,1.76a46.7,46.7,0,0,0,4.55-6L214.84,159a69.75,69.75,0,0,1-.81,8.42c-.37,2.28,2.3,4.4,4.18,2.43a49.85,49.85,0,0,0,4.44-5.39L218,163.24l-.63,5c-.3,2.41,2.81,2.94,4.27,1.77a27,27,0,0,0,3.94-3.91H222l-.29-1.18c-.67,3.14,4.15,4.48,4.82,1.33a3.67,3.67,0,0,0-1-3.68,2.52,2.52,0,0,0-3.54,0,26.42,26.42,0,0,1-3.94,3.9l4.27,1.77.63-5c.35-2.74-3.4-3-4.66-1.27a41.54,41.54,0,0,1-3.66,4.39l4.18,2.43a79.51,79.51,0,0,0,1-9.75c.09-2.57-3.39-3.27-4.66-1.26a38.58,38.58,0,0,1-3.77,5l4.27,1.77a7.25,7.25,0,0,1,1.17-4.29c1.7-2.74-2.62-5.25-4.32-2.52Z"/><path class="cls-2" d="M129.1,153.27A14.21,14.21,0,0,0,128,161.7c.39,2.46,4.32,2.31,4.82,0l2.66-12.17-4.91-.66L131,161c.1,2.7,4.32,3.54,4.91.67L139,146.63l-4.91-.66a104.89,104.89,0,0,0-.23,14.51,2.51,2.51,0,0,0,4.91.67,131.81,131.81,0,0,0,4.38-17.37l-4.91-.67L137,160.76c-.21,2.77,4.43,3.45,4.91.66a107.88,107.88,0,0,1,2.78-12l-4.91-.66-.49,10.73h5a52.7,52.7,0,0,1,1.55-10.76l-4.91-.67a36.53,36.53,0,0,0,.91,7.93c.51,2.27,3.41,2.22,4.57.59a9,9,0,0,0,1.62-4.63l-4.91.66.26,1.16a2.5,2.5,0,0,0,3.67,1.49,4.87,4.87,0,0,0,2.27-3.34c.51-3.15-4.3-4.5-4.82-1.33l0,.36,3.67,1.49-.26-1.16c-.65-2.95-4.63-1.95-4.91.67A3.53,3.53,0,0,1,142,154l4.57.6a30.55,30.55,0,0,1-.73-6.6c0-2.78-4.22-3.44-4.91-.66a58.66,58.66,0,0,0-1.73,12.09c-.12,3.22,4.86,3.2,5,0l.49-10.73c.13-2.87-4.14-3.33-4.91-.66a107.19,107.19,0,0,0-2.78,12l4.91.67,1.31-17.65c.2-2.78-4.41-3.44-4.91-.66A131.84,131.84,0,0,1,134,159.82l4.92.66a104.89,104.89,0,0,1,.23-14.51c.24-2.8-4.35-3.42-4.91-.67l-3.08,15.06L136,161l-.45-12.15c-.1-2.71-4.29-3.53-4.91-.66L128,160.37h4.82a8,8,0,0,1,.58-4.58c1.28-2.92-3-5.47-4.31-2.52Z"/><path class="cls-2" d="M101.68,217.12q4.53,8.85,9.47,17.46a2.53,2.53,0,0,0,3.42.9l16-9.1a2.54,2.54,0,0,0,.89-3.42L126,213c-1.46-2.65-2.66-5.7-4.76-7.89a2.51,2.51,0,0,0-2.43-.65c-5.62,1.43-11.44,6-16.48,8.86-2.81,1.58-.29,5.9,2.52,4.32,4.64-2.61,10.11-7,15.29-8.36l-2.43-.64c2.09,2.19,3.42,5.88,4.88,8.54l4.56,8.29.89-3.42-16,9.09,3.42.9q-4.95-8.61-9.47-17.47c-1.46-2.86-5.78-.34-4.32,2.53Z"/><path class="cls-2" d="M110.26,228a14.14,14.14,0,0,0,6.68,5.16c2.36.93,4.19-2.56,2.43-4.17l-9.15-8.46-3,3.93,10.71,5.77c2.41,1.29,5.22-2,3-3.93L109.51,216l-3,3.92a106.06,106.06,0,0,0,12.4,7.56,2.51,2.51,0,0,0,3-3.93A130.52,130.52,0,0,0,109.15,211l-3,3.92L120.67,225c2.31,1.6,5.2-2.09,3-3.93a108.74,108.74,0,0,1-9-8.48l-3,3.92,9,5.85,2.52-4.32a52.58,52.58,0,0,1-8.51-6.8l-3,3.93a35.74,35.74,0,0,0,7.27,3.21c2.28.73,3.65-1.83,2.82-3.67a9,9,0,0,0-3.15-3.71l-1.93,4.57,1.13.36a2.52,2.52,0,0,0,3.17-2.41,4.9,4.9,0,0,0-1.77-3.66c-2.46-2-6,1.47-3.53,3.53l.3.13,3.16-2.41-1.13-.36c-2.89-.93-4.05,3-1.93,4.57a3.77,3.77,0,0,1,1.37,1.92l2.82-3.68a30.09,30.09,0,0,1-6.08-2.71c-2.44-1.42-5.08,1.92-3,3.93a59.53,59.53,0,0,0,9.53,7.58c2.72,1.75,5.21-2.57,2.52-4.32l-9-5.84c-2.44-1.59-4.93,1.91-3,3.92a108.74,108.74,0,0,0,9,8.48l3-3.92-14.55-10.07c-2.31-1.6-5.18,2.08-3,3.93a129.51,129.51,0,0,1,12.76,12.58l3-3.93A107.36,107.36,0,0,1,109,215.6c-2.31-1.64-5.12,2-3,3.92l11.42,10.28,3-3.92-10.7-5.77c-2.42-1.3-5.19,1.94-3,3.93l9.15,8.45,2.43-4.18a8,8,0,0,1-3.7-2.86c-1.87-2.58-6.21-.09-4.31,2.52Z"/><path class="cls-2" d="M11.3,165.28a18,18,0,0,0,2.3,20.13,26.79,26.79,0,0,0,10,6.65c3.18,1.32,4.67,2.42,5.92,5.89a17,17,0,0,0,2.94,5.81,21.09,21.09,0,0,0,8.33,5.61c2,.84,4.55,1.1,6.09,2.69,1.71,1.76,1.89,5,2.46,7.32a51.89,51.89,0,0,0,9.43,20A29.74,29.74,0,0,0,78,250.59c4.13.59,8.08-.33,12.18-.13,3.93.18,6.78,3.42,10.63,3.72,1.51.12,2.68-.49,4.15-.68,2.65-.33,3.7,1.63,5.78,2.9a21.38,21.38,0,0,0,11.64,2.79,55.2,55.2,0,0,0,12-1.88c3.33-.81,6.65-2,10.13-1.36,2.69.46,5.2,1.79,7.82,2.5a35.8,35.8,0,0,0,25.15-2.6c3.1-1.56,6.09-3.5,9.11-5.2s4.91-5,8.46-5.49c7.78-1.14,13.32-6.31,15.36-13.94,1.35-5-.42-11.11,4.19-14.51a15.49,15.49,0,0,0,6-8.11c1.45-4.64-.54-11.49,3-15.15,2.27-2.32,5.88-3.82,8.48-5.85C238,183,243.34,176.65,246,169.74c3.62-9.31,1.47-17.43-2.22-26.22-1.72-4.1-.62-7-.73-11.11a7.94,7.94,0,0,0-.8-3.51c-1.37-2.81-2.26-3.74-1.24-7.18,3.24-11-4.84-19.57-9.87-28.33-2.93-5.1-1.72-10.76-2.76-16.34A35.29,35.29,0,0,0,223,64c-2.57-3.81-5.81-6.56-9.33-9.44-3.95-3.23-4.85-8.6-8.23-12.47-7.24-8.29-18.41-10.6-28.75-12.4l1.84,2.41c0-2.92-3.62-6-5.86-7.33a17.73,17.73,0,0,0-11.64-2.26c-4.51.63-8.06,2.69-11.82,5.07-3.6,2.28-5.1,1.4-8.89.45a14.37,14.37,0,0,0-6.26-.17,21.37,21.37,0,0,0-6.9,2.79c-2.17,1.3-4,3.35-6.47,3.9-4.16.92-9.55-2.74-13.76-3.84-7.91-2.07-17-2.55-24.77.39a28.87,28.87,0,0,0-10.37,6.77C68.52,41.18,67,45.45,64.05,49c-2.18,2.68-5.57,3.25-8.07,5.5-1.17,1.06-1.44,2.23-2.19,3.55-1.87,3.34-3.68,3.08-6.63,4.52C39.78,66.21,36.21,74.43,33.48,81.7c-.88,2.33-1.59,4.87-3,7-1.74,2.59-4.51,4.09-6.9,6a34.84,34.84,0,0,0-9.12,10.79,35.89,35.89,0,0,0-4.24,14.18c-.26,3.09,0,5.74-1.5,8.57-1.39,2.57-2.89,4.53-3.75,7.4-3.3,11.16,1.63,22.29,6.33,32.23,1.37,2.9,5.69.37,4.32-2.53-4.28-9.05-9.25-19.78-5.33-29.86,1.37-3.51,4.37-6,4.78-9.85.52-4.89.26-9.37,2.07-14.1a30.74,30.74,0,0,1,7.67-11.35c3.12-2.9,7-4.78,9.54-8.31,4.81-6.74,5.18-15.75,11.21-21.9,2.9-3,6.36-2.86,9.56-4.93,2.82-1.82,2.67-5.38,5.17-7.33s5.05-2.48,7.11-4.81c2.57-2.91,3.89-6.68,6.33-9.69,6.28-7.75,15.48-9.69,25-8.8a43,43,0,0,1,10,2.11c3.52,1.21,7.33,3.58,11.08,3.75,4.08.18,6.65-3.41,9.89-5.28,3.53-2,6.74-2.73,10.69-1.65,1.79.49,3.27,1.21,5.18,1.12,4.67-.23,8.08-4.42,12.3-6a15.07,15.07,0,0,1,9-.74c1.42.37,6.65,2.69,6.65,4.4a2.53,2.53,0,0,0,1.83,2.41c8.93,1.56,19,3.2,25.56,10.05,3.06,3.19,3.6,7.16,6,10.63,2,3,5.84,4.59,8.38,7.17A30.89,30.89,0,0,1,222.46,74c1.58,4.67,1.25,9.22,1.73,14,.86,8.46,8.16,14.38,11.14,22.1a16.48,16.48,0,0,1,1.3,8.22c-.25,1.86-1.15,3.44-1.48,5.24-.69,3.66,1.89,5,2.75,8.08.72,2.6-.62,5.62-.35,8.31.42,4.26,3.14,8,4.41,12,3.19,10-1,19.16-7.58,26.62-4.41,5-10.09,7.59-15,11.87-2.67,2.33-2.94,4.82-2.8,8.21.22,5.12-.11,10.35-4.47,13.75-2.35,1.84-4.42,3.23-5.26,6.25-1.16,4.17-.18,8.55-1.67,12.74-1.81,5.05-6,8.73-11.47,8.8-3.61,0-4.8,2.44-7.58,4.68-2.17,1.76-4.73,2.7-7.05,4.23a32.33,32.33,0,0,1-12.52,5.15,31,31,0,0,1-14.38-1.06c-4.32-1.35-7.84-2.8-12.44-2.19-8.31,1.1-17.71,6-25.87,1.48-2.84-1.56-4.59-4.4-8.15-4.19-1.66.09-3.28,1.14-4.95.89-1.22-.17-2.68-1.28-3.77-1.83-6.9-3.48-14.35-.31-21.63-2.39-9.24-2.63-15.06-10.61-18.71-19.08-2.44-5.64-1.9-16-7.92-19-4.22-2.12-8.9-2.34-12.23-6.17-2.71-3.12-2.16-7.66-5.45-10.46-3.46-2.95-8.35-3.47-11.91-6.44a12.94,12.94,0,0,1-3.52-16C17.07,164.94,12.76,162.41,11.3,165.28Z"/><path class="cls-3" d="M64.3,9.18c-10.92,10.52-19.46,27-15.68,42.46,1.89,7.71,9.3,16.11,17.46,17.46,6.45,1.06,12,1.06,18-1.48a92.79,92.79,0,0,0,9.59-5l14.87-8.42L78.29,50.29l.47.51L71.44,33.12Q75.69,19.56,72.76,26c-.53,1-1.1,2.07-1.69,3.08-1.23,2.12-2.54,4.2-3.81,6.29l-8,13.07c-6.81,11.18-2.81,28,9,34.2,12.17,6.43,26.93,3,34.21-9C113,56.32,131.38,33.92,113.64,14.94,106,6.79,92.77,5.7,83.35,11L72.61,17.11l-5,2.8C66,20.84,59.39,24,66.93,21H80.22l-.85-.14L96.83,38.34l-.21-.85V50.78c.25-1.5.59-2.87,1-4.33,1.09-4.15-2.11,3.44-.41,1.11a19.3,19.3,0,0,0,2.07-3.28l-1.9,2.58c.73-.82,1.5-1.59,2.3-2.33,9.43-9.09,9.83-26.33,0-35.35C89.52-.12,74.36-.53,64.3,9.18Z"/><path class="cls-3" d="M149.56,3.72c-9,6.75-16.6,13.8-22.14,23.77a25.18,25.18,0,0,0,2,27.76c5.89,7.63,16.72,12,26.28,9,10.84-3.45,21.82-6.39,32.82-9.3L164.15,13.13c-9.57,10.16-20.53,20.36-28.05,32.2A26.85,26.85,0,0,0,145.33,83c11,6.24,25.26,2.83,35.39-3.76,10.95-7.12,16.53-22.48,9-34.2-7.05-10.94-22.48-16.6-34.2-9-.8.52-4.83,2.51-1.14,1,1.79-.7,2-.83.74-.41-2,.55-1,.49,2.86-.2l12.62,3.41-.93-.61,11.48,14.94-.27-1V66.43a10.16,10.16,0,0,1-2.41,5.22q-1.53,2-.25.37c1-1.16,2-2.38,2.95-3.55,2-2.36,4.08-4.67,6.17-7,4-4.39,8.11-8.7,12.19-13,7.35-7.8,10-20.84,3.91-30.29S186.24,3.77,175.18,6.7s-22,5.85-32.82,9.3l28.23,36.72c.64-1.15,1.45-2.25,2.06-3.42,1.28-2.49-4,4.25-.41.53,1.42-1.46,7.83-6.9,2.55-2.94,5.41-4.06,9.62-8.15,11.49-14.94,1.65-6,.9-13.95-2.52-19.26-6.64-10.31-23-17.37-34.2-9Z"/><ellipse class="cls-4" cx="81.21" cy="43.26" rx="33.29" ry="35.02"/><ellipse class="cls-4" cx="162.76" cy="43.26" rx="33.29" ry="35.02"/><path class="cls-2" d="M70.22,55.2c16.09,0,16.12-25,0-25s-16.11,25,0,25Z"/><path class="cls-2" d="M153,56.31c16.09,0,16.12-25,0-25s-16.11,25,0,25Z"/><path class="cls-3" d="M49,191.71c6.18,2.13,12.43,4.87,18.89,6s11.75,1.41,18-.1a31.32,31.32,0,0,0,8.38-3.52l1.07-.81q11.55-8.49-3.06,1.06l-24.33-6.43.67.55-7.32-17.68c1.08,8.67,2.6,16.63,9.09,23a37.71,37.71,0,0,0,16.86,9.83,40.44,40.44,0,0,0,20.89-.3,48.85,48.85,0,0,0,6.09-2.25c2.19-.89,8.7-2.32.66-1.54l-12.61-3.41.73.54-9-9-1.89-4,.38,1.22c.08,1.65,2.09,5.5,3.47,7.58a34.48,34.48,0,0,0,11.24,11.14c8.38,4.87,17.33,6,26.75,4.39a44,44,0,0,0,16.79-7.08c2-1.34,3.86-2.82,5.84-4.16,1.07-.74,2.36-1.31,3.36-2.11,2.11-1.69-5.61,1.86-.9.4l-28.24-11.49q-2.55-13.87-2.2-7.25a12.79,12.79,0,0,0,.19,2.62c.47,5.47,1.39,10.07,4.28,14.87,5.81,9.61,16.44,15.16,27.6,13.66,13.28-1.78,23-13.18,32.77-21.64,9.9-8.62,9.48-26.66,0-35.36-10.55-9.68-24.8-9.19-35.36,0l-8.2,7.14-3.73,3.24-1.49,1.3q-5.67,4.72,6-3.34H164c13,2.82,15.57,28.79,14.42,14.66A33.18,33.18,0,0,0,174,158.3c-5.28-9.36-17.85-14.7-28.24-11.49a59.76,59.76,0,0,0-17.64,9.07c-2.18,1.57-4.44,2.86-6.7,4.3-2.45,1.57,5.71-2,.82-.65a15.5,15.5,0,0,1,7.83-.09q5.47,2.72,2.95,1.29c-1.81-1.12-.95-.17,2.6,2.82a11.2,11.2,0,0,1,4.73,6.8l-.24-1c-2.39-6.74-6.22-12.79-12.63-16.41-9.79-5.52-19.26-2.89-28.84.85-1,.39-2,.77-3,1.08-4.16,1.25-.72,0,1.45,0l4.1.65c-1.87-.54-1.69-.38.55.46,3,1.92,5.51,3,7.25,6.52l2.46,9.24-.13-1c1.58-4.24-2.85-11.88-5.37-15.14a25.22,25.22,0,0,0-23.62-10c-6.56.88-11.24,3.52-16.34,7.59,2.78-2.22,5.12-3.64,8.62-4.18,1.53-.24,8.28,1.21,4.44,0-5.64-1.74-11.2-3.66-16.78-5.59-12.37-4.26-27.88,4.88-30.75,17.47C28.32,174.87,35.7,187.14,49,191.71Z"/><path class="cls-4" d="M116.45,201c-38.65,0-85.6-14.43-85.6-34.09h0c0-13.12,12.6-23.86,23.86-23.86s26.72,14.89,61.74,14.89S165.07,143,178.19,143A23.93,23.93,0,0,1,202,166.86h0C202,180,155.09,201,116.45,201Z"/><path class="cls-2" d="M37,162.14q21,6.6,42.38,11.66c13.34,3.14,27,6.4,40.65,7.83,13.16,1.37,26.33-2.3,39-5.65,11.25-3,24.85-5.59,33.11-14.47,2.19-2.36-1.33-5.9-3.53-3.54-8.27,8.89-23.2,11.25-34.5,14.12-13,3.3-25.43,6-38.87,3.88-26-4.08-51.77-10.76-76.87-18.65-3.08-1-4.39,3.86-1.33,4.82Z"/><path class="cls-2" d="M67,147.08c-5.92,12.35-10.48,25.32-16.4,37.68-1.39,2.89,2.92,5.42,4.32,2.52,5.92-12.35,10.48-25.33,16.4-37.68,1.38-2.89-2.93-5.43-4.32-2.52Z"/><path class="cls-2" d="M86.79,154.54C86,168,82.74,181.36,82.86,194.87c0,3.21,5,3.22,5,0C87.74,181.36,91,168,91.79,154.54c.18-3.21-4.82-3.2-5,0Z"/><path class="cls-2" d="M114.93,161.66q-.17,20.24.07,40.46c0,3.22,5,3.23,5,0q-.23-20.22-.07-40.46c0-3.22-5-3.22-5,0Z"/><path class="cls-2" d="M143.58,154c-.27,15.06-.23,29.59,5.85,43.65,1.27,2.95,5.58.41,4.32-2.52-5.69-13.14-5.42-27.11-5.17-41.13.06-3.22-4.94-3.22-5,0Z"/><path class="cls-2" d="M165.34,152.75l14.84,31.91c1.36,2.91,5.67.38,4.32-2.53l-14.84-31.9c-1.35-2.92-5.67-.38-4.32,2.52Z"/></g></g></svg>