<svg xmlns="http://www.w3.org/2000/svg" viewBox="0 0 430.54 372.59"><defs><style>.cls-1{fill:#fefbdb;}.cls-2{fill:#adc1e4;}.cls-3{fill:#fabbb2;}.cls-4{fill:#231f20;}.cls-5{fill:#fec65f;}.cls-6{fill:#fff;}.cls-7{fill:none;stroke:#231f20;stroke-linecap:round;stroke-miterlimit:10;stroke-width:5px;}</style></defs><title>cooky</title><g id="Layer_2" data-name="Layer 2"><g id="Layer_1-2" data-name="Layer 1"><path class="cls-1" d="M30.88,364.49A687,687,0,0,1,137,365.82c8.73.79,17.44,1.79,26.14,2.88,6.09.76-4.67-.64.63.08l12,1.61c3.89.5,7.79,1,11.7,1.36,17.65,1.72,36.4,1.21,53.08-5.36,9.53-3.75,16.48-10.12,17.91-20.79,1.21-9-3-20.83-11.94-24.91A683.94,683.94,0,0,0,147.3,284.1c-17.93-5-36-9.17-54.54-11-19-1.89-37.59,1.15-56.18,4.69-12.87,2.45-21.38,18.62-17.46,30.75C23.62,322.43,36,328.38,49.87,326c4.33-.75,8.66-1.46,13-2.09l3.72-.54q-5.31.7-1,.16c1.86-.23,3.73-.47,5.6-.68q13.06-1.5,26.22-2.27a479.77,479.77,0,0,1,50.74-.28q12.68.6,25.31,1.87c4.06.41,8.1.9,12.15,1.38q4.24.56-1.06-.15l3.73.53c1.86.27,3.71.55,5.57.85a482.4,482.4,0,0,1,51.43,11.11,25,25,0,0,0,19.27-45.69c-26.08-15.5-55.54-23.58-85.34-28-15.92-2.36-31.9-4.1-47.91-5.72-7.32-.74-14.65-1.48-22-2.31-3.36-.38-6.72-.79-10.08-1.21-5.52-.68,5,.74,0,0-2.22-.32-4.44-.64-6.66-1l-6.64,49.11c31.85-3.72,63.74-7.43,95.79-8.91,15.76-.73,31.57-.94,47.34-.29,3.23.13,6.45.32,9.67.62,5.89.57-2.63-.54-.22-.09,1.59.29,3.17.54,4.75.88s3.1.73,4.64,1.18c.76.21,1.51.45,2.26.7,2,.75,2,.71,0-.14s-2-.89-.1,0c.71.33,1.4.7,2.09,1.09,1.45.8,6.45,4.41.83,0,5.23,4.07,10.65,7.64,17.68,7.32a25.74,25.74,0,0,0,15.15-5.37c8.92-6.89,13.95-22.26,6.44-32.25-7.88-10.46-17-19.3-28.84-25.25a139.17,139.17,0,0,0-32.78-11.41c-23.83-5.24-47.89-8.67-71.55-14.88l-6.64,49.11,82.14,5.84c13.26.94,26.54,1.76,39.78,2.95q4.74.42,9.48.94l4.72.57c3.22.37-4.91-.77-.05,0,6.9,1.12,13.72,2.41,20.49,4.13,10.36,2.63,23-1.64,28.23-11.49,5.52-10.44,3.57-21.46-3.91-30.3-14.95-17.68-35.73-30.65-57.88-37.22-12.05-3.58-24.82-4.75-37.33-5.37-6-.29-11.93-.44-17.88-.82-1.32-.08-8.33-1.57-9.35-.81.68-.51,5,.83,1.08.12-1.85-.34-3.69-.68-5.53-1.08L193,239.09a1600,1600,0,0,0,164.34,19.62c12.39.83,23-10.15,24.55-21.67.72-5.33,0-11.29-3-15.94-3.77-5.86-8.57-8.83-14.94-11.49L330.2,195.43,322,192a26,26,0,0,0-3.66-1.53c2,.48,4.06,1.8.83.3-1.21-.55-4.72-3.26-5.75-3.13.84-.11,4.06,3.89,1.78,1.23,4.2,4.9,1.78,2.51.79.48L294.38,227a768,768,0,0,1,83.09-2.47c10.52.25,21.73-7.91,24.11-18.36s-1.43-23-11.49-28.23c-8.83-4.58-17.18-6.4-27-7.21-3-.25-6-.31-8.93-.43-1.63-.07-3.25-.19-4.88-.27-5.51-.27,5.54,1.44.24.05-1.4-.36-2.82-.76-4.22-1.1-4.19-1,3.82,2,1.24.62-1.06-.58-2.16-1.09-3.21-1.71-.84-.49-1.65-1-2.45-1.57l2.73,2.16c-1.87-2.06-4.13-4.28-6.17-6.17l2.17,2.73c-.56-.8-1.08-1.62-1.57-2.46-.73-1.26-1.36-2.57-2-3.89l-21.59,37.61a564.23,564.23,0,0,0,79.29,2.21c10.62-.46,21.61-7.41,24.11-18.36,2.62-11.54-2.07-21.51-11.49-28.23-15.18-10.82-35.2-13-53.33-12-8.05.45-16.07,1.45-24.14,1.64-2.34.06-4.68.06-7,0-.69,0-4.69.25-5.21-.38q5.67.82,1.52.11c-1.12-.22-2.24-.47-3.36-.76a56.23,56.23,0,0,1-6.55-2.25L325.71,169a14.9,14.9,0,0,1,.68-2.48c-1.83,4-2.12,4.86-.85,2.64-4.24,6.64-.93,2.11.31.43q-5.09,3.8-1.87,1.63c.76-.47,1.54-.92,2.33-1.34,5.93-3.17-3.81,1.16.28-.28,8.07-2.85,16.29-5.24,24.5-7.65,9.07-2.66,18.18-5.16,27.4-7.24,4.9-1.11,9.83-2.11,14.78-3,1.41-.24,9.68-2,2.67-.49a63,63,0,0,1,7.5-.8c6.77-.63,12.73-2.37,17.68-7.33,4.34-4.33,7.6-11.45,7.32-17.67-.56-12.51-11.05-26.3-25-25-24.3,2.25-47.76,7.89-71.08,14.88-22.18,6.65-48.88,14.48-54.87,40.35-1.43,6.2-1,13.74,2.52,19.27,3.76,5.82,8.57,8.9,14.94,11.49,17,6.88,35.55,5.16,53.31,3.78,3.71-.28,7.43-.51,11.15-.55,1.6,0,3.21,0,4.81,0s5,1,6.35.44q-5.65-.82-2.74-.34c.77.12,1.54.27,2.31.43,2,.43,4,1.09,6,1.64,4.5,1.24-4.57-2.74-.3-.12,1.78,1.1,3.57,2.07,5.28,3.29l12.62-46.58a564.23,564.23,0,0,1-79.29-2.21c-8.52-.84-17.47,5.36-21.59,12.39-4.85,8.29-3.84,16.89,0,25.23,7.22,15.67,21.73,27.11,37.74,32.79,7.48,2.66,15.66,3.26,23.53,3.59,3.25.14,6.49.31,9.74.49,5.08.29-5.79-1.33.38.26,6,1.56-3.76-2.21.62.06l12.62-46.58A768,768,0,0,0,294.38,177c-19.55,1.64-30.26,19.8-21.59,37.61,7.45,15.31,24.13,20.71,38.64,26.79l39.29,16.47,6.65-49.11q-39.15-2.61-78.12-7.18-9.74-1.16-19.46-2.43c-3.06-.39-1.09-.09.81.12-1.94-.22-3.89-.53-5.83-.8-2.91-.4-5.82-.82-8.74-1.24q-19.89-2.88-39.71-6.3c-6.79-1.17-13.11-1.08-19.26,2.52-5.18,3-10.13,9-11.49,14.94-2.87,12.6,3.79,27.8,17.46,30.75,12.62,2.73,25.51,3.57,38.38,4.1,5.64.23,11.29.45,16.91,1,.68.07,3.2.73,3.74.4l-2.93-.38c.93.13,1.85.29,2.78.46,2.38.43,4.74.94,7.09,1.56q3,.79,6.05,1.79c1.25.42,2.49.86,3.72,1.33.74.28,4.25,1.67.67.22-3.81-1.54.52.3,1.34.7s1.88.93,2.82,1.42c2.09,1.11,4.15,2.29,6.16,3.54s4,2.61,5.9,4c3.68,2.58-3-2.56-.69-.53.79.7,1.62,1.35,2.41,2a99.25,99.25,0,0,1,10.48,10.73l24.32-41.79c-27.93-7.09-57.1-8.2-85.73-10.24l-84.12-6c-12.39-.88-23,10.19-24.56,21.67-1.61,12,5.8,24.25,17.91,27.43,22.21,5.83,44.71,9.47,67.19,14,4.35.87,8.68,1.84,13,3,2.35.64,4.68,1.34,7,2.13.92.31,1.82.63,2.73,1,.58.22,5.14,2,1,.34-4-1.62,0,.07.9.5,1.05.52,2.09,1.06,3.11,1.63,1.84,1,3.59,2.17,5.34,3.32,3.57,2.34-3.4-3-1.2-1,.86.79,1.76,1.52,2.6,2.32,1.55,1.5,6.3,7.48,1.67,1.33l39.27-30.3c-8.32-6.47-16.16-11.17-26.35-14.33-8.24-2.55-17.08-3.51-25.64-4.18-16.14-1.25-32.49-1-48.66-.37-34,1.27-67.91,5.21-101.72,9.16-12.51,1.45-22.77,8.4-24.56,21.67-1.49,11.11,5.6,25.55,17.91,27.43,15.6,2.4,31.27,4.18,47,5.78,7.34.74,14.67,1.47,22,2.27,3.37.37,6.74.75,10.11,1.16l5,.64c5.22.65-5.7-.82.88.13a296.88,296.88,0,0,1,40.81,8.5c6.63,1.94,13,4.52,19.47,6.8-6.51-2.28-1.27-.49.08.13q2.25,1.05,4.47,2.16c3.49,1.74,6.89,3.63,10.23,5.62l19.27-45.69C186.14,267.89,110.41,265,36.58,277.77L49.87,326c4.08-.78,8.17-1.55,12.27-2.24,1.52-.25,8.41-2,1.88-.36a36.36,36.36,0,0,1,5.71-.59,127.46,127.46,0,0,1,23,.29c1.28.13,2.55.27,3.82.43q-4.71-.64-1.87-.23c1.9.34,3.81.61,5.71,1,4.12.75,8.22,1.62,12.3,2.57,7.75,1.8,15.45,3.86,23.12,6q22.75,6.44,45,14.54,11.11,4,22.08,8.51a37,37,0,0,1,5.24,2.17c-5-3.17-.51-.21,1,.44q6.09,2.63,12.11,5.38l6-45.7a72.69,72.69,0,0,1-11.83,3.59c-1.14.23-2.3.44-3.45.63l3.15-.41c-1.35.89-5.43.47-7.05.54a155.39,155.39,0,0,1-23.32-1q-2.7-.29-5.4-.63c-.72-.08-8.06-1-3.85-.48q3.18.42-.25,0l-8.43-1.13-5.64-.74q-13.05-1.65-26.15-2.8a688.43,688.43,0,0,0-104.15-1.16c-13,.83-25.63,10.9-25,25,.58,12.83,11,25.89,25,25Z"/><path class="cls-2" d="M9,337.19a985.19,985.19,0,0,1,116.2-7c19,0,38,.37,56.81,2.55,19.86,2.3,39.3,7.07,58.68,11.86,1.56.38,2.22-2,.66-2.41-18.35-4.54-36.75-9.06-55.52-11.48-19.45-2.51-39.09-3-58.67-3A982.29,982.29,0,0,0,9,334.69c-1.58.19-1.6,2.7,0,2.5Z"/><path class="cls-2" d="M20.43,307.74q58.76-2,117.52.4c19.39.8,38.77,1.92,58.11,3.48,10,.8,19.67,2.13,29.26,5.13,8.15,2.55,16.11,5.41,24.67,6.18,1.61.15,1.6-2.35,0-2.5-9.54-.86-18.33-4.52-27.46-7.14-8.65-2.48-17.53-3.45-26.47-4.17-19.34-1.56-38.72-2.68-58.11-3.48q-58.72-2.42-117.52-.4c-1.6.05-1.61,2.55,0,2.5Z"/><path class="cls-2" d="M41.71,285c71,1.76,144.22-3.82,212.19,21,1.52.55,2.17-1.87.67-2.42-68.18-24.84-141.66-19.27-212.86-21a1.25,1.25,0,0,0,0,2.5Z"/><path class="cls-2" d="M68.08,262.81a87.1,87.1,0,0,1,39.15,7.46c1.46.65,2.73-1.51,1.26-2.16a89.75,89.75,0,0,0-40.41-7.8c-1.6.06-1.61,2.56,0,2.5Z"/><path class="cls-2" d="M247.79,281a71.35,71.35,0,0,1,27.61,3.17c1.53.49,2.19-1.92.66-2.41a73.15,73.15,0,0,0-28.27-3.26c-1.59.13-1.6,2.63,0,2.5Z"/><path class="cls-2" d="M274.63,255.17H307a1.25,1.25,0,0,0,0-2.5H274.63a1.25,1.25,0,0,0,0,2.5Z"/><path class="cls-2" d="M288.56,229.89a180.44,180.44,0,0,0,38.12,5.55c1.61.06,1.61-2.44,0-2.5a176.26,176.26,0,0,1-37.46-5.47,1.26,1.26,0,0,0-.66,2.42Z"/><path class="cls-2" d="M313.47,214.06q30.34,3.42,60.88,4.14a1.25,1.25,0,0,0,0-2.5q-30.53-.72-60.88-4.14c-1.59-.18-1.58,2.32,0,2.5Z"/><path class="cls-2" d="M314.63,186l88.76.66a1.25,1.25,0,0,0,0-2.5l-88.76-.66a1.25,1.25,0,0,0,0,2.5Z"/><path class="cls-2" d="M308.05,169.16h89.31a1.25,1.25,0,0,0,0-2.5H308.05a1.25,1.25,0,0,0,0,2.5Z"/><path class="cls-2" d="M304.78,149.09q49.43-3.47,98.7-8.68c1.58-.16,1.6-2.67,0-2.5q-49.28,5.22-98.7,8.68c-1.59.11-1.61,2.61,0,2.5Z"/><path class="cls-3" d="M46.75,354.47c1.88-13.93,11-25.43,19-36.49,8.69-12,18.34-22,30.74-30.17a344.18,344.18,0,0,1,36.85-21c12.24-6.06,25.2-10.94,35.8-19.77,1.24-1-.54-2.79-1.76-1.76-11.57,9.63-26.21,14.69-39.48,21.48s-26.36,14-38.35,22.77c-10.57,7.7-18.85,17.31-26.47,27.86-8,11.05-16.85,22.49-18.73,36.38-.21,1.58,2.2,2.26,2.42.67Z"/><path class="cls-4" d="M5,363.87c1.83-53.94,42.07-98,93.05-111.89a151.94,151.94,0,0,1,39.76-5c13.84,0,27.54.32,41.17-2.52a117.48,117.48,0,0,0,90.37-88.84c.77-3.37,1.37-6.76,1.83-10.17.14-1,1.47-11.15,1.34-11.2,3,1.13,4.32-3.7,1.33-4.82-3.86-1.46-6.12,2.42-6.66,5.73-1.13,6.92-1.36,13.82-3,20.7A114.4,114.4,0,0,1,248,192.72a112.58,112.58,0,0,1-66.39,46.07c-14.45,3.54-29,3.19-43.77,3.23a157.33,157.33,0,0,0-41.09,5.14c-25,6.8-48.44,20.45-65.69,40C12.3,308.33,1,335.54,0,363.87c-.11,3.21,4.89,3.21,5,0Z"/><path class="cls-4" d="M4.92,363.17l63.37-1.69c20.18-.53,40.4-1.44,60.58-.94A260.7,260.7,0,0,1,161,363.08c9.33,1.4,18.42,3.79,27.64,5.67,19.8,4.05,38.24,1.15,57.69-3.3,3.14-.72,1.81-5.54-1.33-4.82-10.37,2.37-20.83,4.8-31.49,5.36-9.87.51-19.38-1.09-29-3.24a285.35,285.35,0,0,0-57.56-7.25c-40.6-.81-81.42,1.59-122,2.67-3.22.09-3.23,5.09,0,5Z"/><path class="cls-4" d="M250,363.41c7.21-40.87,32.12-78,67.66-99.57,20.3-12.33,43.06-19.55,62.1-34.1,16.72-12.77,34.46-29.62,37.16-51.47,3.06-24.69-.93-51.21,13.2-73.21,1.74-2.72-2.58-5.23-4.32-2.52-11.89,18.52-11.89,41-12.89,62.18-.6,12.71-1.82,24.17-9.61,34.68a134.81,134.81,0,0,1-24.57,24.86c-19.52,15.46-43.25,22.75-64.24,35.66a152.06,152.06,0,0,0-69.31,102.16c-.55,3.14,4.27,4.49,4.82,1.33Z"/><path class="cls-4" d="M268.49,134q76.35-19.61,153.24-37c3.13-.71,1.81-5.53-1.33-4.82q-76.89,17.39-153.24,37c-3.12.8-1.8,5.62,1.33,4.82Z"/><path class="cls-5" d="M117.17,66C104.62,86.24,95.7,108.09,89,130.85c-2.77,9.36-5.45,18.74-8.77,27.92-.83,2.3-1.69,4.58-2.6,6.85-.28.71-.56,1.41-.85,2.12q-1.08,2.61,1-2.39c-.79.72-1.2,2.72-1.63,3.67-2.81,6.21-5.93,12.27-9.24,18.23a25.14,25.14,0,0,0,6.44,32.25c10.49,8.1,23,6,32.83-2a54.77,54.77,0,0,0,14.48-17.64,68.44,68.44,0,0,1,4-7.19c.53-.78,1.07-1.54,1.64-2.29-2.3,3-2.51,3.3-.63,1,1.62-1.88,3.16-3.84,4.73-5.77,10.54-13,20.74-26.29,30.17-40.12,6.61-9.71,12.85-19.66,19.41-29.41q5.83-8.67,12-17.11,3.69-5.07,7.49-10c.68-.91,1.37-1.81,2.07-2.71q-3.19,4.1-.64.82c1.56-2,3.12-4,4.7-6L166.33,50.8c-14.22,24.74-26.24,50.39-37.16,76.73-4.67,11.25-9.16,22.58-13.77,33.86q-1.94,4.73-3.9,9.45c-.63,1.49-2.81,6.34,0,0-.68,1.54-1.31,3.09-2,4.64Q104.87,186.33,100,197c-2.87,6.27-4.42,12.36-2.52,19.26,1.6,5.8,6.08,12.08,11.49,14.94,11.84,6.26,27.33,3.19,34.2-9a314.24,314.24,0,0,1,22.05-33.43c1-1.36,2.23-2.73,3.14-4.15-3.44,5.41-.47.63.38-.46q3.28-4.16,6.64-8.23,6.76-8.25,13.8-16.27c18.16-20.8,37.35-40.67,56.05-61l-39.26-30.3c-17.87,28.08-37.66,54.84-56.08,82.54-19.28,29-36,59.14-48.74,91.61-2.14,5.44-.57,14.47,2.52,19.27a25.82,25.82,0,0,0,12,10.22c12.24,5.17,23.71-.06,31.22-10.22q3.9-5.28,7.86-10.52l3.42-4.48q2.52-3.29-.46.58l1.74-2.24q7.84-10.08,15.9-20c10.39-12.82,21-25.47,31.74-38,21.77-25.46,44-50.49,66.05-75.73L233.78,81.16c-33,53.39-66.65,107.51-90.65,165.7-4,9.71,2.6,23.53,11.49,28.23a29.75,29.75,0,0,0,12.62,3.41c5.52.25,14.12-2.83,17.68-7.32,19.15-24.22,36.77-49.56,55-74.5q6.45-8.84,13-17.56c1-1.38,2-2.83,3.17-4.15-4.37,5.18,0,.05.88-1.11,2.31-2.93,4.63-5.85,7-8.74a398.33,398.33,0,0,1,29-32.19L253.7,102.64c-16.26,21.58-32.53,43.17-48.17,65.21-15.33,21.61-29.9,43.55-38.08,69-3.24,10.1,2.06,23.25,11.49,28.23a25.91,25.91,0,0,0,30.3-3.91q45.1-42,87.95-86.33c7.43-7.7,9.94-20.93,3.9-30.3a30.05,30.05,0,0,0-9-9c-4.73-3-13.9-4.71-19.27-2.52-8.17,3.34-14.56,7.54-20.17,14.38C248,153.16,243.47,159,239,164.92q-10.56,14-19.88,28.9c-13.29,21.23-24.18,43.64-33.71,66.78-4,9.71,2.59,23.53,11.49,28.23,9.16,4.85,23.14,4.82,30.29-3.91a162.21,162.21,0,0,1,19.19-19.51c3.46-3,7-5.84,10.62-8.71,2.58-2.09-3.87,2.93-1.22.92l2.59-2c1.94-1.48,3.89-2.94,5.85-4.4,16-11.92,32.35-23.62,46.3-38,9.13-9.39,10-26.14,0-35.36-9.86-9.06-25.61-10-35.35,0a217.42,217.42,0,0,1-20.51,18.34c-.85.67-1.75,1.29-2.56,2,1-.86,3.8-2.9,1.2-.93-1.94,1.47-3.89,2.95-5.84,4.41-3.69,2.76-7.4,5.5-11.09,8.27-15.9,11.92-31.86,24.07-44.53,39.53l41.78,24.32c1.8-4.35-1.4,3.19-.15.31.47-1.07.93-2.15,1.4-3.22q1.58-3.62,3.23-7.2,3.31-7.17,6.9-14.2,7.18-14.07,15.44-27.54,8-13.09,17-25.54c1.54-2.13,3.11-4.25,4.69-6.35.48-.63,3.54-4.71,1.25-1.65-2.11,2.81.33-.39.75-.92,1.63-2.06,3.28-4.12,5-6.14.64-.77,1.36-1.51,2-2.3q2.26-2.14-.31-.08a9.28,9.28,0,0,1-4.68,2.22l-24.32-41.79Q219,183.83,173.88,225.83l41.79,24.32c.9-2.81,1.91-5.57,3-8.34,2-5.46-1.62,3.31-.11.27.66-1.32,1.23-2.68,1.87-4,2.58-5.31,5.46-10.49,8.53-15.54,6.46-10.68,13.69-20.87,20.93-31,15.29-21.49,31.16-42.55,47-63.62,3.5-4.63,4.25-13.92,2.52-19.26a25.91,25.91,0,0,0-8.95-13,25.06,25.06,0,0,0-32.83,2c-21.91,21.61-40.66,46.27-58.82,71-8.77,11.95-17.36,24-26,36.07q-6.48,9-13.07,17.87-3,4-6,8l-2,2.62,1.91-2.47a44.48,44.48,0,0,1-4,5.12l41.78,24.32c2.5-6.06-1.86,4.22-.07.16.71-1.6,1.4-3.2,2.12-4.8q2.24-5,4.61-10c3.15-6.63,6.44-13.21,9.81-19.74,7.25-14.05,14.88-27.91,22.7-41.66,14.92-26.25,30.57-52.07,46.45-77.75,6.57-10.62,3.11-24.86-6.44-32.25-9.26-7.15-24.61-7.46-32.83,2-45.83,52.55-92.58,104.37-134.06,160.52l45.69,19.26a61.91,61.91,0,0,1,2.67-6.65c-3.05,5.65-.37.88.27-.57q2.46-5.62,5.13-11.17c3.48-7.27,7.21-14.42,11.12-21.46,7.86-14.12,16.49-27.79,25.45-41.22,18.16-27.2,37.57-53.54,55.14-81.13,6.7-10.53,3-24.94-6.44-32.25s-24.34-7.25-32.83,2C171,105.57,128.41,146.68,100,197l43.17,25.23c11.87-25.93,22.3-52.44,33.16-78.8.75-1.82,5.16-11.64,1.61-3.9,1.2-2.61,2.27-5.3,3.43-7.94q3.75-8.54,7.77-17c6.29-13.13,13.15-26,20.4-38.6a25.09,25.09,0,0,0-6.43-32.25c-8.92-6.89-25.09-7.82-32.83,2-18.56,23.42-34.87,47.95-51.55,72.67q-5.49,8.11-11.29,16c-1.1,1.5-2.22,3-3.34,4.48l-1.77,2.33q-2.37,3.1,1.12-1.44c-3.15,2.86-5.66,7.18-8.35,10.5-5.94,7.32-12.47,14.36-16.8,22.8-1,1.91-2.65,4.1-3.33,6.1q4.5-5.62,2-2.69c-.52.59-1.06,1.17-1.63,1.72a57.44,57.44,0,0,1-4.54,4l39.27,30.29c11.6-20.88,19.68-43,26.39-65.88,2.74-9.33,5.58-18.63,9.18-27.68.35-.88,2-5,.39-1s.13-.23.52-1.1c1.18-2.62,2.43-5.22,3.73-7.79,3.07-6.07,6.47-12,10.06-17.73,6.91-11.13,2.74-28-9-34.21-12.26-6.47-26.83-2.9-34.21,9Z"/><path class="cls-4" d="M107.86,171.29l11.56,22.26a2.49,2.49,0,0,0,3.42.89q9.32-7.06,18.21-14.62a2.5,2.5,0,0,0,.39-3L126.35,156.7a2.56,2.56,0,0,0-3.42-.9,95.81,95.81,0,0,0-15.3,11.75c-2.35,2.21,1.19,5.74,3.53,3.53a89.5,89.5,0,0,1,14.3-11l-3.42-.9,15.09,20.09.39-3q-8.42,7.16-17.2,13.85l3.42.89-11.56-22.25c-1.48-2.86-5.8-.33-4.32,2.52Z"/><path class="cls-4" d="M197.76,165.13q-5.34,8.37-10.26,17a2.54,2.54,0,0,0,.89,3.42l16,9.18a2.54,2.54,0,0,0,3.42-.9l5.81-9.75c1.54-2.59,3.58-5.17,4.41-8.09a2.55,2.55,0,0,0-.64-2.44c-4.08-4.12-11-6.81-16-9.73-2.78-1.62-5.3,2.7-2.52,4.32l7.36,4.29c2.38,1.39,5.67,2.7,7.6,4.66l-.64-2.43c-.83,2.91-3.33,5.92-4.88,8.53l-4.84,8.12,3.42-.9-15.94-9.18.89,3.42q4.94-8.64,10.27-17c1.74-2.72-2.59-5.23-4.32-2.52Z"/><path class="cls-4" d="M179.66,123.85l2.81,10.74a2.51,2.51,0,0,0,3.08,1.74l9.11-3.71c1.67-.68,4-1.21,5-2.87s.33-4-.11-5.7a43.66,43.66,0,0,0-2.88-7.82,2.51,2.51,0,0,0-2.83-1.15A105.44,105.44,0,0,1,181,119.47c-3.1.84-1.78,5.67,1.33,4.82a105.44,105.44,0,0,0,12.83-4.39l-2.82-1.15c1,2.06,3.78,7.28,1.6,8.82-1.22.86-3.16,1.29-4.56,1.85l-5.12,2.09,3.07,1.75-2.81-10.74c-.81-3.11-5.63-1.79-4.82,1.33Z"/><path class="cls-4" d="M116.71,163.47A39.88,39.88,0,0,0,113.23,178c-.11,2.36,3.65,3.56,4.66,1.26a59.54,59.54,0,0,1,8.4-13.91l-3.93-3a64.48,64.48,0,0,0-5.08,17.53,2.51,2.51,0,0,0,4.57,1.93l8.42-11.24L126,168a90.68,90.68,0,0,0-6.09,17.4c-.52,2.21,2.54,4.54,4.18,2.43a73,73,0,0,0,8.41-13.47c1.37-2.87-2.74-5.38-4.32-2.53a28.4,28.4,0,0,0-3.26,9.34c-.36,2.23,2.35,4.49,4.18,2.43a42.62,42.62,0,0,0,5.5-7.63l-4.66-1.26a12.8,12.8,0,0,0,.48,3.43c.79,3.12,5.61,1.8,4.82-1.33l-.3-2.1a2.52,2.52,0,0,0-4.66-1.26,37,37,0,0,1-4.71,6.62l4.17,2.43a24.45,24.45,0,0,1,2.76-8.14l-4.32-2.53a67.36,67.36,0,0,1-7.62,12.47l4.18,2.43a84.4,84.4,0,0,1,5.58-16.21A2.5,2.5,0,0,0,126,168l-8.42,11.24,4.57,1.92a59.88,59.88,0,0,1,4.58-16.34c1-2.35-2-5.43-3.93-3a63.75,63.75,0,0,0-9.18,14.92l4.66,1.26A32.83,32.83,0,0,1,121,166c1.3-2.92-3-5.47-4.31-2.53Z"/><path class="cls-4" d="M137,102.27l18.55,16.88a2.53,2.53,0,0,0,3.92-.5q6.12-9.59,11.69-19.48a2.55,2.55,0,0,0-.89-3.42L149.18,82.12a2.5,2.5,0,0,0-3,.39A94.7,94.7,0,0,0,135.8,98.78c-1.44,2.87,2.87,5.41,4.31,2.53A89.16,89.16,0,0,1,149.69,86l-3,.39,21.1,13.63-.9-3.42q-5.56,9.92-11.68,19.48l3.92-.5L140.56,98.73c-2.38-2.16-5.92,1.36-3.54,3.54Z"/><path class="cls-4" d="M142.76,92.47a38.31,38.31,0,0,0,1.73,14.19,2.51,2.51,0,0,0,4.91-.67,59.16,59.16,0,0,1,3.18-15.9l-4.91-.66a64.56,64.56,0,0,0,1.41,18.23c.55,2.5,4.15,2.26,4.82,0l4-13.46L153,93.54a86.73,86.73,0,0,0,.33,17.79c.32,2.69,4,3.51,4.91.66a73.39,73.39,0,0,0,3.13-15.6c.26-2.78-4.49-3.46-4.91-.67a29.8,29.8,0,0,0,.2,10.57c.52,2.68,4,2,4.82,0a40.56,40.56,0,0,0,2.33-8.45H159a12.65,12.65,0,0,0,1.57,3.06c1.81,2.64,6.14.14,4.32-2.52l-1.07-1.87c-.8-2-4.38-2.73-4.82,0a40.56,40.56,0,0,1-2.33,8.45h4.82a22.37,22.37,0,0,1-.2-7.91l-4.91-.66a66.91,66.91,0,0,1-2.95,14.27l4.91.67A86.73,86.73,0,0,1,158,93.54c.23-2.89-4.13-3.29-4.91-.67l-4,13.46h4.82a59.61,59.61,0,0,1-1.23-16.9c.19-3-4-3.21-4.92-.67A64.55,64.55,0,0,0,144.4,106l4.91-.66a34.59,34.59,0,0,1-1.55-12.86c.2-3.21-4.8-3.2-5,0Z"/><path class="cls-4" d="M181.09,125.36a11.81,11.81,0,0,0,3.77,5.93c1.45,1.22,4.54.6,4.27-1.77a47.15,47.15,0,0,0-1.45-7.45l-4.17,2.43a75.46,75.46,0,0,1,6.17,6.72c1.33,1.66,4.43.32,4.26-1.76a49.36,49.36,0,0,0-1-7l-4.17,2.43,3.33,3.83c1.51,1.74,4.17.25,4.26-1.77a30,30,0,0,0-.37-6.2L193.55,124l-1-.66c1.88,2.57,6.22.07,4.31-2.53a3.66,3.66,0,0,0-3.32-1.81,2.55,2.55,0,0,0-2.41,3.17,24,24,0,0,1,.19,4.87l4.27-1.76-3.33-3.83c-1.74-2-4.68.16-4.18,2.43a40.76,40.76,0,0,1,.85,5.62l4.27-1.77A74.1,74.1,0,0,0,187,121a2.52,2.52,0,0,0-4.18,2.44,39.82,39.82,0,0,1,1.27,6.12l4.26-1.77a7.2,7.2,0,0,1-2.48-3.71c-.89-3.09-5.71-1.78-4.82,1.32Z"/><path class="cls-4" d="M276.36,180.44l-6.14,9.25a2.52,2.52,0,0,0,.9,3.42l8.6,4.2c1.6.79,3.55,2.14,5.43,1.85,4-.63,6.65-7.57,8-10.76.5-1.16.44-2.78-.89-3.42a105.55,105.55,0,0,1-11.83-6.64c-2.71-1.75-5.21,2.57-2.52,4.32a107.94,107.94,0,0,0,11.82,6.64l-.89-3.42c-.94,2.19-2.74,7.59-5.39,7.72-1.2.06-3.81-1.86-4.91-2.4l-4.92-2.4.9,3.42,6.13-9.25c1.79-2.69-2.54-5.2-4.31-2.53Z"/><path class="cls-4" d="M276.18,182.51a12.12,12.12,0,0,0-1.85,6.81c.05,2.05,2.77,3.45,4.27,1.77a48,48,0,0,0,4.55-6l-4.66-1.26a70.14,70.14,0,0,1-.81,8.42c-.37,2.28,2.3,4.4,4.17,2.43a51,51,0,0,0,4.45-5.4L281.64,188l-.63,5c-.3,2.41,2.81,2.94,4.27,1.76a26.83,26.83,0,0,0,3.93-3.9h-3.53l-.29-1.18c-.67,3.14,4.15,4.48,4.82,1.33a3.67,3.67,0,0,0-1-3.69,2.51,2.51,0,0,0-3.53,0,26.48,26.48,0,0,1-3.94,3.91L286,193l.63-5c.35-2.73-3.4-3-4.66-1.26a42.46,42.46,0,0,1-3.66,4.38l4.18,2.43a79.55,79.55,0,0,0,1-9.74c.09-2.58-3.39-3.27-4.66-1.26a39.16,39.16,0,0,1-3.77,5l4.27,1.77A7.22,7.22,0,0,1,280.5,185c1.7-2.74-2.62-5.26-4.32-2.53Z"/><path class="cls-4" d="M192.75,178a14.26,14.26,0,0,0-1.09,8.44c.39,2.45,4.32,2.31,4.82,0l2.66-12.17-4.92-.67.46,12.16c.1,2.69,4.32,3.54,4.91.66l3.08-15.05-4.91-.67a106.62,106.62,0,0,0-.24,14.52,2.51,2.51,0,0,0,4.91.66,131.06,131.06,0,0,0,4.39-17.37l-4.91-.66L200.6,185.5c-.21,2.78,4.43,3.46,4.91.67a107.36,107.36,0,0,1,2.78-12l-4.91-.66-.49,10.72h5a52.8,52.8,0,0,1,1.55-10.76l-4.91-.66a36.44,36.44,0,0,0,.91,7.92c.51,2.28,3.41,2.22,4.57.6a9.07,9.07,0,0,0,1.62-4.64l-4.91.67.26,1.16a2.51,2.51,0,0,0,3.67,1.49,4.87,4.87,0,0,0,2.27-3.35c.51-3.14-4.3-4.5-4.82-1.32l0,.35,3.67,1.5-.26-1.16c-.66-2.95-4.63-2-4.91.66a3.5,3.5,0,0,1-.94,2.11l4.57.6a30.52,30.52,0,0,1-.73-6.59c0-2.79-4.22-3.45-4.91-.67a58.76,58.76,0,0,0-1.73,12.09c-.12,3.22,4.86,3.21,5,0l.49-10.72c.12-2.87-4.14-3.33-4.92-.67a110.11,110.11,0,0,0-2.77,12l4.91.66,1.31-17.64c.2-2.78-4.41-3.45-4.91-.67a131.06,131.06,0,0,1-4.39,17.37l4.91.67a106.62,106.62,0,0,1,.24-14.52c.24-2.79-4.35-3.42-4.91-.66l-3.09,15,4.92.67-.46-12.16c-.1-2.7-4.28-3.52-4.91-.66l-2.65,12.17h4.82a8,8,0,0,1,.58-4.58c1.28-2.92-3-5.47-4.31-2.53Z"/><path class="cls-4" d="M165.33,241.86q4.53,8.85,9.47,17.47a2.55,2.55,0,0,0,3.42.9l16-9.1a2.54,2.54,0,0,0,.89-3.42l-5.46-10c-1.46-2.65-2.66-5.69-4.76-7.89a2.5,2.5,0,0,0-2.43-.64c-5.62,1.42-11.44,6-16.48,8.86-2.81,1.57-.29,5.89,2.52,4.31,4.64-2.6,10.11-7,15.29-8.35l-2.43-.64c2.09,2.18,3.42,5.87,4.88,8.53l4.56,8.29.89-3.42-16,9.1,3.42.9q-5-8.62-9.47-17.47c-1.46-2.87-5.78-.34-4.32,2.52Z"/><path class="cls-4" d="M173.9,252.71a14.18,14.18,0,0,0,6.69,5.17c2.36.92,4.18-2.56,2.43-4.18l-9.15-8.45-3,3.93,10.71,5.76c2.41,1.3,5.22-1.95,3-3.93l-11.42-10.28-3,3.93a103,103,0,0,0,12.4,7.55,2.51,2.51,0,0,0,3-3.92,130.62,130.62,0,0,0-12.76-12.58l-3,3.93,14.55,10.06c2.31,1.6,5.2-2.09,3-3.93a108.74,108.74,0,0,1-9-8.48l-3,3.93,9,5.85,2.52-4.32a52.1,52.1,0,0,1-8.51-6.81l-3,3.93a36.33,36.33,0,0,0,7.27,3.22c2.28.73,3.64-1.83,2.82-3.67a8.82,8.82,0,0,0-3.16-3.71l-1.92,4.57,1.13.36c1.42.46,3.35-.81,3.16-2.41a4.88,4.88,0,0,0-1.76-3.67c-2.46-2-6,1.48-3.53,3.54l.29.13,3.17-2.41-1.13-.37c-2.9-.93-4.06,3-1.93,4.57a3.77,3.77,0,0,1,1.37,1.92l2.82-3.67a30.12,30.12,0,0,1-6.08-2.72c-2.44-1.42-5.08,1.92-3,3.93a58.61,58.61,0,0,0,9.53,7.59c2.72,1.74,5.21-2.57,2.52-4.32l-9-5.85c-2.44-1.58-4.93,1.91-3,3.93a110.23,110.23,0,0,0,8.95,8.48l3-3.93-14.55-10.06c-2.32-1.6-5.19,2.07-3,3.93A129.41,129.41,0,0,1,182,251.82l3-3.93a104.64,104.64,0,0,1-12.4-7.55c-2.31-1.64-5.13,2-3,3.93L181,254.55l3-3.93-10.7-5.76c-2.42-1.3-5.19,1.93-3,3.92l9.15,8.46,2.43-4.18a8.07,8.07,0,0,1-3.7-2.87c-1.87-2.58-6.21-.09-4.32,2.52Z"/><path class="cls-4" d="M75,190a18,18,0,0,0,2.3,20.12,26.67,26.67,0,0,0,10,6.65c3.18,1.32,4.67,2.43,5.92,5.9a17.06,17.06,0,0,0,2.94,5.81,21.21,21.21,0,0,0,8.32,5.6c2.06.84,4.56,1.11,6.1,2.7,1.71,1.75,1.89,5,2.46,7.32a52,52,0,0,0,9.43,20,29.74,29.74,0,0,0,19.17,11.18c4.13.58,8.07-.34,12.18-.14,3.93.19,6.78,3.42,10.63,3.73,1.51.11,2.68-.5,4.15-.68,2.64-.33,3.7,1.62,5.78,2.9A21.38,21.38,0,0,0,186,283.94a55.63,55.63,0,0,0,12-1.88c3.34-.82,6.65-2,10.14-1.37,2.69.46,5.19,1.79,7.82,2.51a35.82,35.82,0,0,0,25.14-2.61c3.11-1.55,6.1-3.49,9.12-5.2s4.91-5,8.46-5.49c7.77-1.14,13.32-6.31,15.36-13.94,1.35-5-.42-11.1,4.19-14.51a15.49,15.49,0,0,0,6-8.11c1.45-4.63-.54-11.48,3-15.14,2.28-2.33,5.89-3.82,8.48-5.86,5.82-4.55,11.2-10.94,13.9-17.86,3.62-9.3,1.47-17.43-2.22-26.22-1.72-4.1-.62-7-.73-11.1a7.94,7.94,0,0,0-.8-3.51c-1.37-2.82-2.26-3.74-1.24-7.18,3.23-10.95-4.84-19.58-9.87-28.33-2.93-5.11-1.72-10.77-2.76-16.34a35.22,35.22,0,0,0-5.4-13.08c-2.57-3.82-5.81-6.56-9.33-9.44-3.95-3.24-4.85-8.6-8.23-12.47-7.24-8.29-18.41-10.6-28.75-12.41l1.84,2.41c0-2.92-3.62-6-5.86-7.32a17.67,17.67,0,0,0-11.64-2.26c-4.51.62-8.06,2.69-11.82,5.07-3.6,2.28-5.1,1.4-8.89.44a14.53,14.53,0,0,0-6.26-.17,21.82,21.82,0,0,0-6.9,2.79c-2.17,1.3-4,3.35-6.47,3.91-4.16.92-9.55-2.75-13.77-3.85-7.9-2.07-17-2.55-24.77.4a29.15,29.15,0,0,0-10.37,6.76c-3.28,3.35-4.85,7.62-7.75,11.19-2.18,2.67-5.57,3.24-8.07,5.49-1.17,1.06-1.44,2.23-2.19,3.56-1.87,3.34-3.68,3.07-6.63,4.52-7.39,3.61-11,11.83-13.68,19.1-.88,2.34-1.6,4.88-3,7-1.74,2.59-4.51,4.09-6.9,6a35,35,0,0,0-9.12,10.79,36.12,36.12,0,0,0-4.25,14.18c-.25,3.1,0,5.75-1.49,8.57-1.39,2.57-2.89,4.53-3.75,7.4-3.31,11.17,1.63,22.3,6.33,32.23,1.37,2.91,5.69.38,4.32-2.52C75,181,70,170.25,73.94,160.17c1.37-3.52,4.37-6,4.78-9.86.52-4.89.26-9.37,2.07-14.09a30.58,30.58,0,0,1,7.67-11.35c3.11-2.91,7-4.79,9.54-8.32,4.81-6.74,5.18-15.74,11.21-21.89,2.9-3,6.36-2.87,9.56-4.93,2.82-1.82,2.67-5.39,5.17-7.33s5.05-2.49,7.11-4.82c2.57-2.91,3.89-6.67,6.33-9.68,6.28-7.75,15.48-9.69,25-8.8a42.52,42.52,0,0,1,10,2.11c3.52,1.21,7.33,3.57,11.08,3.74,4.08.18,6.65-3.41,9.89-5.27,3.53-2,6.74-2.74,10.69-1.66,1.79.49,3.27,1.21,5.18,1.12,4.67-.22,8.08-4.41,12.3-6a15.15,15.15,0,0,1,9-.74c1.42.37,6.65,2.69,6.65,4.4A2.52,2.52,0,0,0,239,59.22c8.93,1.56,19,3.2,25.56,10,3.06,3.2,3.6,7.17,6,10.64,2.05,3,5.84,4.59,8.38,7.17a30.87,30.87,0,0,1,7.18,11.67c1.58,4.67,1.25,9.21,1.73,14,.86,8.47,8.16,14.38,11.14,22.1a16.54,16.54,0,0,1,1.3,8.23c-.25,1.85-1.15,3.43-1.49,5.24-.68,3.66,1.9,5,2.76,8.07.72,2.6-.62,5.62-.35,8.31.42,4.26,3.14,8,4.41,12,3.19,10-1,19.16-7.58,26.62-4.41,5-10.09,7.59-15,11.88-2.67,2.32-2.94,4.81-2.8,8.2.22,5.13-.11,10.36-4.47,13.76-2.35,1.84-4.42,3.22-5.26,6.24-1.16,4.17-.18,8.56-1.67,12.74-1.81,5.05-6,8.74-11.47,8.8-3.61,0-4.8,2.44-7.58,4.69-2.17,1.75-4.73,2.69-7.05,4.23A32.29,32.29,0,0,1,230.19,279a30.83,30.83,0,0,1-14.37-1.06c-4.32-1.35-7.84-2.8-12.44-2.19-8.31,1.1-17.71,6-25.87,1.48-2.84-1.56-4.59-4.39-8.15-4.19-1.66.1-3.28,1.14-5,.9-1.22-.18-2.68-1.29-3.77-1.84-6.9-3.48-14.36-.31-21.63-2.38-9.25-2.64-15.06-10.61-18.72-19.09-2.43-5.64-1.89-16-7.92-19-4.21-2.12-8.89-2.34-12.22-6.16C97.43,222.31,98,217.76,94.7,215c-3.46-2.94-8.35-3.46-11.91-6.44a12.93,12.93,0,0,1-3.52-16C80.72,189.69,76.4,187.15,75,190Z"/><path class="cls-6" d="M127.94,33.92C117,44.44,108.49,61,112.27,76.38c1.89,7.72,9.3,16.12,17.46,17.46,6.45,1.07,12,1.07,18-1.48a91.86,91.86,0,0,0,9.59-5L172.23,79,141.94,75l.47.5-7.32-17.67q4.23-13.57,1.32-7.14c-.54,1-1.1,2.06-1.69,3.07-1.23,2.13-2.54,4.2-3.82,6.3l-8,13.06c-6.81,11.18-2.81,28,9,34.21,12.17,6.42,26.93,3,34.21-9C176.68,81.07,195,58.67,177.29,39.68c-7.61-8.14-20.87-9.24-30.29-3.9l-10.74,6.07-5,2.81c-1.63.92-8.26,4.08-.72,1.11h13.29l-.85-.14,17.46,17.46-.21-.86v13.3c.24-1.5.59-2.87,1-4.33,1.09-4.16-2.11,3.44-.42,1.11A19.22,19.22,0,0,0,162.9,69L161,71.6c.73-.81,1.5-1.59,2.3-2.32,9.43-9.1,9.83-26.34,0-35.36-10.13-9.3-25.29-9.7-35.36,0Z"/><path class="cls-6" d="M213.2,28.46c-9,6.75-16.59,13.81-22.13,23.77A25.2,25.2,0,0,0,193,80c5.89,7.62,16.72,12,26.28,9,10.84-3.46,21.82-6.39,32.82-9.3L227.8,37.87c-9.57,10.17-20.53,20.37-28.05,32.2A26.85,26.85,0,0,0,209,107.71C220,114,234.24,110.55,244.37,104c10.95-7.12,16.53-22.48,9-34.21-7.05-10.93-22.48-16.59-34.21-9-.79.51-4.82,2.5-1.13.94,1.78-.69,2-.83.74-.4q-2.94.83,2.86-.21l12.62,3.42-.94-.62,11.49,14.94-.27-1V91.18a10.25,10.25,0,0,1-2.41,5.21c-1,1.33-1.1,1.45-.25.38,1-1.16,1.95-2.38,2.95-3.55,2-2.36,4.08-4.67,6.17-7,4-4.39,8.11-8.7,12.19-13,7.35-7.81,10-20.84,3.91-30.3s-17.17-14.41-28.23-11.49-22,5.85-32.82,9.3l28.23,36.73c.64-1.16,1.45-2.25,2-3.42,1.29-2.49-4,4.25-.4.53,1.42-1.46,7.83-6.91,2.55-2.94,5.41-4.07,9.62-8.16,11.49-14.94,1.65-6,.9-14-2.52-19.27-6.65-10.3-23-17.37-34.21-9Z"/><ellipse class="cls-7" cx="144.85" cy="68" rx="33.29" ry="35.02"/><ellipse class="cls-7" cx="226.41" cy="68" rx="33.29" ry="35.02"/><path class="cls-4" d="M133.87,80c16.09,0,16.11-25,0-25s-16.11,25,0,25Z"/><path class="cls-4" d="M216.68,81.05c16.09,0,16.12-25,0-25s-16.11,25,0,25Z"/><path class="cls-4" d="M97.1,38c2.25-8.25,10.74-13.53,17.81-17.41a73,73,0,0,1,25.46-8.18c6.35-.88,3.65-10.52-2.66-9.65A80.08,80.08,0,0,0,106.9,13.65c-8.41,5.13-16.74,11.79-19.45,21.67-1.7,6.22,8,8.87,9.65,2.66Z"/><path class="cls-4" d="M212.76,10a82.05,82.05,0,0,1,29.16,4.38c8.22,2.84,18.42,6.71,17.46,17.06-.6,6.4,9.41,6.36,10,0,1.16-12.5-8.09-19.78-18.49-24.25A90.55,90.55,0,0,0,212.76,0c-6.42.17-6.45,10.17,0,10Z"/><path class="cls-4" d="M257.36,150.54c-1.53-2.87-3.13-6.17-3.29-9.5-.08-1.73.17-3.89,1.45-5.19,2.17-2.22,4.66-1.18,4.34,1.88-.25,2.43,2.78,2.92,4.27,1.77,1.53-1.74,2.77-1.17,3.7,1.71a3.89,3.89,0,0,1-2.73,1.92c-1,.46-2,.78-2.93,1.24a34.54,34.54,0,0,0-6.86,4.5c-2.5,2,1.06,5.55,3.54,3.53,3.31-2.69,7.06-3.55,10.62-5.61a7.69,7.69,0,0,0,3.48-7.3,6.85,6.85,0,0,0-4-5.7c-3.13-1.36-5.85.25-8.33,2.17l4.27,1.77c.77-7.34-7.15-10.54-12.45-5.78-6.16,5.52-2.61,15,.64,21.11,1.52,2.84,5.84.31,4.31-2.52Z"/><path class="cls-4" d="M256.31,137a8.18,8.18,0,0,1-.56,4.06c-1,2.51,2.5,3.93,4.18,2.43s4.36-3.14,3.32-5.6c-.86-2-3.79-2.42-5.66-3a2.5,2.5,0,0,0-3.07,1.75c-.46,2.61-1.71,6-1,8.67.76,3,3.65,3.25,6.07,2.14a21.93,21.93,0,0,0,6.7-4.79c1.74-1.83,2.63-4.84-.5-5.83a2.52,2.52,0,0,0-3.08,1.75c-.36,2.4.67,4.58,3.17,5.21,3.12.78,4.45-4,1.33-4.82l.32.94-3.07,1.74.26.09-1.75-1.75.11.28.25-1.93c-1.14,2.19-3.63,2.83-5.32,4.34l-.62.31,1,1.16c.06,0,.17-1.43.2-1.6.27-1.52.53-3.05.8-4.58l-3.07,1.74c.55.19,2.56.49,2.93,1l-.64-2.44.27-.39-.91.82-1.52,1.35,4.17,2.43a11.4,11.4,0,0,0,.74-5.39c-.33-3.17-5.34-3.21-5,0Z"/></g></g></svg>